<svg width="230" height="327" viewBox="0 0 230 327" fill="none" xmlns="http://www.w3.org/2000/svg">
<g filter="url(#filter0_d)">
<rect x="50" y="59" width="130" height="218" rx="5" fill="white"/>
<rect x="146.021" y="50" width="17" height="17" rx="5" transform="rotate(45 146.021 50)" fill="white"/>
<g filter="url(#filter1_d)">
<rect x="60" y="70" width="111" height="37" rx="18.5" fill="white"/>
</g>
<path fill-rule="evenodd" clip-rule="evenodd" d="M79.5 101C86.4036 101 92 95.4036 92 88.5C92 81.5964 86.4036 76 79.5 76C72.5964 76 67 81.5964 67 88.5C67 95.4036 72.5964 101 79.5 101Z" fill="#CE00FF"/>
<path fill-rule="evenodd" clip-rule="evenodd" d="M79.3049 91.9578L76.7422 90.4782C76.5915 90.3911 76.4986 90.2303 76.4986 90.0563V87.0459L73 85.0624V91.889C73 92.1789 73.1546 92.4468 73.4057 92.5918L79.305 95.9976V91.9578H79.3049ZM82.7608 87.0437V90.0569C82.7608 90.2306 82.6681 90.3912 82.5176 90.4782L79.9508 91.9601V96L85.8538 92.5919C86.1049 92.4469 86.2595 92.179 86.2595 91.8891V85.0603L82.7608 87.0437ZM76.899 86.491L79.3862 85.055C79.5369 84.9681 79.7225 84.9681 79.8732 85.0549L82.3379 86.4779L85.8717 84.4783L80.0355 81.1088C79.7844 80.9637 79.4751 80.9637 79.224 81.1088L73.3799 84.4829L76.899 86.491Z" fill="#F5A623"/>
<path d="M107.308 92.232V93H101.368V84.6H107.128V85.368H102.256V88.356H106.6V89.112H102.256V92.232H107.308ZM110.031 87.924C110.231 87.5 110.527 87.18 110.919 86.964C111.319 86.748 111.811 86.64 112.395 86.64V87.468L112.191 87.456C111.527 87.456 111.007 87.66 110.631 88.068C110.255 88.476 110.067 89.048 110.067 89.784V93H109.215V86.688H110.031V87.924ZM117.154 86.64C117.946 86.64 118.574 86.872 119.038 87.336C119.51 87.792 119.746 88.46 119.746 89.34V93H118.894V89.424C118.894 88.768 118.73 88.268 118.402 87.924C118.074 87.58 117.606 87.408 116.998 87.408C116.318 87.408 115.778 87.612 115.378 88.02C114.986 88.42 114.79 88.976 114.79 89.688V93H113.938V86.688H114.754V87.852C114.986 87.468 115.306 87.172 115.714 86.964C116.13 86.748 116.61 86.64 117.154 86.64ZM127.579 90.108H122.299C122.347 90.764 122.599 91.296 123.055 91.704C123.511 92.104 124.087 92.304 124.783 92.304C125.175 92.304 125.535 92.236 125.863 92.1C126.191 91.956 126.475 91.748 126.715 91.476L127.195 92.028C126.915 92.364 126.563 92.62 126.139 92.796C125.723 92.972 125.263 93.06 124.759 93.06C124.111 93.06 123.535 92.924 123.031 92.652C122.535 92.372 122.147 91.988 121.867 91.5C121.587 91.012 121.447 90.46 121.447 89.844C121.447 89.228 121.579 88.676 121.843 88.188C122.115 87.7 122.483 87.32 122.947 87.048C123.419 86.776 123.947 86.64 124.531 86.64C125.115 86.64 125.639 86.776 126.103 87.048C126.567 87.32 126.931 87.7 127.195 88.188C127.459 88.668 127.591 89.22 127.591 89.844L127.579 90.108ZM124.531 87.372C123.923 87.372 123.411 87.568 122.995 87.96C122.587 88.344 122.355 88.848 122.299 89.472H126.775C126.719 88.848 126.483 88.344 126.067 87.96C125.659 87.568 125.147 87.372 124.531 87.372ZM131.017 93.06C130.505 93.06 130.013 92.988 129.541 92.844C129.077 92.692 128.713 92.504 128.449 92.28L128.833 91.608C129.097 91.816 129.429 91.988 129.829 92.124C130.229 92.252 130.645 92.316 131.077 92.316C131.653 92.316 132.077 92.228 132.349 92.052C132.629 91.868 132.769 91.612 132.769 91.284C132.769 91.052 132.693 90.872 132.541 90.744C132.389 90.608 132.197 90.508 131.965 90.444C131.733 90.372 131.425 90.304 131.041 90.24C130.529 90.144 130.117 90.048 129.805 89.952C129.493 89.848 129.225 89.676 129.001 89.436C128.785 89.196 128.677 88.864 128.677 88.44C128.677 87.912 128.897 87.48 129.337 87.144C129.777 86.808 130.389 86.64 131.173 86.64C131.581 86.64 131.989 86.696 132.397 86.808C132.805 86.912 133.141 87.052 133.405 87.228L133.033 87.912C132.513 87.552 131.893 87.372 131.173 87.372C130.629 87.372 130.217 87.468 129.937 87.66C129.665 87.852 129.529 88.104 129.529 88.416C129.529 88.656 129.605 88.848 129.757 88.992C129.917 89.136 130.113 89.244 130.345 89.316C130.577 89.38 130.897 89.448 131.305 89.52C131.809 89.616 132.213 89.712 132.517 89.808C132.821 89.904 133.081 90.068 133.297 90.3C133.513 90.532 133.621 90.852 133.621 91.26C133.621 91.812 133.389 92.252 132.925 92.58C132.469 92.9 131.833 93.06 131.017 93.06ZM138.52 92.616C138.36 92.76 138.16 92.872 137.92 92.952C137.688 93.024 137.444 93.06 137.188 93.06C136.596 93.06 136.14 92.9 135.82 92.58C135.5 92.26 135.34 91.808 135.34 91.224V87.408H134.212V86.688H135.34V85.308H136.192V86.688H138.112V87.408H136.192V91.176C136.192 91.552 136.284 91.84 136.468 92.04C136.66 92.232 136.932 92.328 137.284 92.328C137.46 92.328 137.628 92.3 137.788 92.244C137.956 92.188 138.1 92.108 138.22 92.004L138.52 92.616ZM142.428 93.06C141.82 93.06 141.272 92.924 140.784 92.652C140.296 92.372 139.912 91.988 139.632 91.5C139.352 91.012 139.212 90.46 139.212 89.844C139.212 89.228 139.352 88.676 139.632 88.188C139.912 87.7 140.296 87.32 140.784 87.048C141.272 86.776 141.82 86.64 142.428 86.64C143.036 86.64 143.584 86.776 144.072 87.048C144.56 87.32 144.94 87.7 145.212 88.188C145.492 88.676 145.632 89.228 145.632 89.844C145.632 90.46 145.492 91.012 145.212 91.5C144.94 91.988 144.56 92.372 144.072 92.652C143.584 92.924 143.036 93.06 142.428 93.06ZM142.428 92.304C142.876 92.304 143.276 92.204 143.628 92.004C143.988 91.796 144.268 91.504 144.468 91.128C144.668 90.752 144.768 90.324 144.768 89.844C144.768 89.364 144.668 88.936 144.468 88.56C144.268 88.184 143.988 87.896 143.628 87.696C143.276 87.488 142.876 87.384 142.428 87.384C141.98 87.384 141.576 87.488 141.216 87.696C140.864 87.896 140.584 88.184 140.376 88.56C140.176 88.936 140.076 89.364 140.076 89.844C140.076 90.324 140.176 90.752 140.376 91.128C140.584 91.504 140.864 91.796 141.216 92.004C141.576 92.204 141.98 92.304 142.428 92.304ZM156.608 88.8H157.46V92.004C157.068 92.348 156.604 92.612 156.068 92.796C155.532 92.98 154.968 93.072 154.376 93.072C153.536 93.072 152.78 92.888 152.108 92.52C151.436 92.152 150.908 91.644 150.524 90.996C150.14 90.34 149.948 89.608 149.948 88.8C149.948 87.992 150.14 87.264 150.524 86.616C150.908 85.96 151.436 85.448 152.108 85.08C152.78 84.712 153.54 84.528 154.388 84.528C155.028 84.528 155.616 84.632 156.152 84.84C156.688 85.04 157.14 85.34 157.508 85.74L156.956 86.304C156.292 85.648 155.448 85.32 154.424 85.32C153.744 85.32 153.128 85.472 152.576 85.776C152.032 86.072 151.604 86.488 151.292 87.024C150.98 87.552 150.824 88.144 150.824 88.8C150.824 89.456 150.98 90.048 151.292 90.576C151.604 91.104 152.032 91.52 152.576 91.824C153.12 92.128 153.732 92.28 154.412 92.28C155.276 92.28 156.008 92.064 156.608 91.632V88.8ZM159.995 93.06C159.819 93.06 159.667 92.996 159.539 92.868C159.419 92.74 159.359 92.584 159.359 92.4C159.359 92.216 159.419 92.064 159.539 91.944C159.667 91.816 159.819 91.752 159.995 91.752C160.171 91.752 160.323 91.816 160.451 91.944C160.579 92.064 160.643 92.216 160.643 92.4C160.643 92.584 160.579 92.74 160.451 92.868C160.323 92.996 160.171 93.06 159.995 93.06ZM162.599 93.06C162.423 93.06 162.271 92.996 162.143 92.868C162.023 92.74 161.963 92.584 161.963 92.4C161.963 92.216 162.023 92.064 162.143 91.944C162.271 91.816 162.423 91.752 162.599 91.752C162.775 91.752 162.927 91.816 163.055 91.944C163.183 92.064 163.247 92.216 163.247 92.4C163.247 92.584 163.183 92.74 163.055 92.868C162.927 92.996 162.775 93.06 162.599 93.06ZM165.215 93.06C165.039 93.06 164.887 92.996 164.759 92.868C164.639 92.74 164.579 92.584 164.579 92.4C164.579 92.216 164.639 92.064 164.759 91.944C164.887 91.816 165.039 91.752 165.215 91.752C165.391 91.752 165.543 91.816 165.671 91.944C165.799 92.064 165.863 92.216 165.863 92.4C165.863 92.584 165.799 92.74 165.671 92.868C165.543 92.996 165.391 93.06 165.215 93.06Z" fill="black"/>
<path fill-rule="evenodd" clip-rule="evenodd" d="M79.5 138C86.4036 138 92 132.404 92 125.5C92 118.596 86.4036 113 79.5 113C72.5964 113 67 118.596 67 125.5C67 132.404 72.5964 138 79.5 138Z" fill="#9B9B9B"/>
<path fill-rule="evenodd" clip-rule="evenodd" d="M79.3049 128.958L76.7422 127.478C76.5915 127.391 76.4986 127.23 76.4986 127.056V124.046L73 122.062V128.889C73 129.179 73.1546 129.447 73.4057 129.592L79.305 132.998V128.958H79.3049ZM82.7608 124.044V127.057C82.7608 127.231 82.6681 127.391 82.5176 127.478L79.9508 128.96V133L85.8538 129.592C86.1049 129.447 86.2595 129.179 86.2595 128.889V122.06L82.7608 124.044ZM76.899 123.491L79.3862 122.055C79.5369 121.968 79.7225 121.968 79.8732 122.055L82.3379 123.478L85.8717 121.478L80.0355 118.109C79.7844 117.964 79.4751 117.964 79.224 118.109L73.3799 121.483L76.899 123.491Z" fill="#4A4A4A"/>
<path d="M104.752 130.072C103.664 130.072 102.816 129.76 102.208 129.136C101.6 128.512 101.296 127.604 101.296 126.412V121.6H102.184V126.376C102.184 127.352 102.404 128.08 102.844 128.56C103.284 129.04 103.92 129.28 104.752 129.28C105.592 129.28 106.232 129.04 106.672 128.56C107.112 128.08 107.332 127.352 107.332 126.376V121.6H108.196V126.412C108.196 127.604 107.892 128.512 107.284 129.136C106.684 129.76 105.84 130.072 104.752 130.072ZM112.384 130.06C111.872 130.06 111.38 129.988 110.908 129.844C110.444 129.692 110.08 129.504 109.816 129.28L110.2 128.608C110.464 128.816 110.796 128.988 111.196 129.124C111.596 129.252 112.012 129.316 112.444 129.316C113.02 129.316 113.444 129.228 113.716 129.052C113.996 128.868 114.136 128.612 114.136 128.284C114.136 128.052 114.06 127.872 113.908 127.744C113.756 127.608 113.564 127.508 113.332 127.444C113.1 127.372 112.792 127.304 112.408 127.24C111.896 127.144 111.484 127.048 111.172 126.952C110.86 126.848 110.592 126.676 110.368 126.436C110.152 126.196 110.044 125.864 110.044 125.44C110.044 124.912 110.264 124.48 110.704 124.144C111.144 123.808 111.756 123.64 112.54 123.64C112.948 123.64 113.356 123.696 113.764 123.808C114.172 123.912 114.508 124.052 114.772 124.228L114.4 124.912C113.88 124.552 113.26 124.372 112.54 124.372C111.996 124.372 111.584 124.468 111.304 124.66C111.032 124.852 110.896 125.104 110.896 125.416C110.896 125.656 110.972 125.848 111.124 125.992C111.284 126.136 111.48 126.244 111.712 126.316C111.944 126.38 112.264 126.448 112.672 126.52C113.176 126.616 113.58 126.712 113.884 126.808C114.188 126.904 114.448 127.068 114.664 127.3C114.88 127.532 114.988 127.852 114.988 128.26C114.988 128.812 114.756 129.252 114.292 129.58C113.836 129.9 113.2 130.06 112.384 130.06ZM122.059 127.108H116.779C116.827 127.764 117.079 128.296 117.535 128.704C117.991 129.104 118.567 129.304 119.263 129.304C119.655 129.304 120.015 129.236 120.343 129.1C120.671 128.956 120.955 128.748 121.195 128.476L121.675 129.028C121.395 129.364 121.043 129.62 120.619 129.796C120.203 129.972 119.743 130.06 119.239 130.06C118.591 130.06 118.015 129.924 117.511 129.652C117.015 129.372 116.627 128.988 116.347 128.5C116.067 128.012 115.927 127.46 115.927 126.844C115.927 126.228 116.059 125.676 116.323 125.188C116.595 124.7 116.963 124.32 117.427 124.048C117.899 123.776 118.427 123.64 119.011 123.64C119.595 123.64 120.119 123.776 120.583 124.048C121.047 124.32 121.411 124.7 121.675 125.188C121.939 125.668 122.071 126.22 122.071 126.844L122.059 127.108ZM119.011 124.372C118.403 124.372 117.891 124.568 117.475 124.96C117.067 125.344 116.835 125.848 116.779 126.472H121.255C121.199 125.848 120.963 125.344 120.547 124.96C120.139 124.568 119.627 124.372 119.011 124.372ZM124.621 124.924C124.821 124.5 125.117 124.18 125.509 123.964C125.909 123.748 126.401 123.64 126.985 123.64V124.468L126.781 124.456C126.117 124.456 125.597 124.66 125.221 125.068C124.845 125.476 124.657 126.048 124.657 126.784V130H123.805V123.688H124.621V124.924ZM134.546 130.072C133.898 130.072 133.318 129.9 132.806 129.556C132.302 129.212 131.906 128.72 131.618 128.08C131.338 127.432 131.198 126.672 131.198 125.8C131.198 124.928 131.338 124.172 131.618 123.532C131.906 122.884 132.302 122.388 132.806 122.044C133.318 121.7 133.898 121.528 134.546 121.528C135.194 121.528 135.77 121.7 136.274 122.044C136.786 122.388 137.186 122.884 137.474 123.532C137.762 124.172 137.906 124.928 137.906 125.8C137.906 126.672 137.762 127.432 137.474 128.08C137.186 128.72 136.786 129.212 136.274 129.556C135.77 129.9 135.194 130.072 134.546 130.072ZM134.546 129.28C135.034 129.28 135.462 129.144 135.83 128.872C136.206 128.6 136.498 128.204 136.706 127.684C136.914 127.164 137.018 126.536 137.018 125.8C137.018 125.064 136.914 124.436 136.706 123.916C136.498 123.396 136.206 123 135.83 122.728C135.462 122.456 135.034 122.32 134.546 122.32C134.058 122.32 133.626 122.456 133.25 122.728C132.882 123 132.594 123.396 132.386 123.916C132.178 124.436 132.074 125.064 132.074 125.8C132.074 126.536 132.178 127.164 132.386 127.684C132.594 128.204 132.882 128.6 133.25 128.872C133.626 129.144 134.058 129.28 134.546 129.28ZM141.882 125.2C142.762 125.248 143.43 125.488 143.886 125.92C144.35 126.344 144.582 126.9 144.582 127.588C144.582 128.068 144.466 128.496 144.234 128.872C144.002 129.24 143.658 129.532 143.202 129.748C142.746 129.964 142.19 130.072 141.534 130.072C140.926 130.072 140.35 129.976 139.806 129.784C139.27 129.584 138.838 129.32 138.51 128.992L138.93 128.308C139.21 128.596 139.582 128.832 140.046 129.016C140.51 129.192 141.006 129.28 141.534 129.28C142.222 129.28 142.754 129.132 143.13 128.836C143.506 128.532 143.694 128.116 143.694 127.588C143.694 127.068 143.506 126.66 143.13 126.364C142.754 126.068 142.186 125.92 141.426 125.92H140.826V125.284L143.154 122.368H138.858V121.6H144.258V122.212L141.882 125.2Z" fill="#9B9B9B"/>
<path fill-rule="evenodd" clip-rule="evenodd" d="M79.5 175C86.4036 175 92 169.404 92 162.5C92 155.596 86.4036 150 79.5 150C72.5964 150 67 155.596 67 162.5C67 169.404 72.5964 175 79.5 175Z" fill="#9B9B9B"/>
<path fill-rule="evenodd" clip-rule="evenodd" d="M79.3049 165.958L76.7422 164.478C76.5915 164.391 76.4986 164.23 76.4986 164.056V161.046L73 159.062V165.889C73 166.179 73.1546 166.447 73.4057 166.592L79.305 169.998V165.958H79.3049ZM82.7608 161.044V164.057C82.7608 164.231 82.6681 164.391 82.5176 164.478L79.9508 165.96V170L85.8538 166.592C86.1049 166.447 86.2595 166.179 86.2595 165.889V159.06L82.7608 161.044ZM76.899 160.491L79.3862 159.055C79.5369 158.968 79.7225 158.968 79.8732 159.055L82.3379 160.478L85.8717 158.478L80.0355 155.109C79.7844 154.964 79.4751 154.964 79.224 155.109L73.3799 158.483L76.899 160.491Z" fill="#4A4A4A"/>
<path d="M104.752 167.072C103.664 167.072 102.816 166.76 102.208 166.136C101.6 165.512 101.296 164.604 101.296 163.412V158.6H102.184V163.376C102.184 164.352 102.404 165.08 102.844 165.56C103.284 166.04 103.92 166.28 104.752 166.28C105.592 166.28 106.232 166.04 106.672 165.56C107.112 165.08 107.332 164.352 107.332 163.376V158.6H108.196V163.412C108.196 164.604 107.892 165.512 107.284 166.136C106.684 166.76 105.84 167.072 104.752 167.072ZM112.384 167.06C111.872 167.06 111.38 166.988 110.908 166.844C110.444 166.692 110.08 166.504 109.816 166.28L110.2 165.608C110.464 165.816 110.796 165.988 111.196 166.124C111.596 166.252 112.012 166.316 112.444 166.316C113.02 166.316 113.444 166.228 113.716 166.052C113.996 165.868 114.136 165.612 114.136 165.284C114.136 165.052 114.06 164.872 113.908 164.744C113.756 164.608 113.564 164.508 113.332 164.444C113.1 164.372 112.792 164.304 112.408 164.24C111.896 164.144 111.484 164.048 111.172 163.952C110.86 163.848 110.592 163.676 110.368 163.436C110.152 163.196 110.044 162.864 110.044 162.44C110.044 161.912 110.264 161.48 110.704 161.144C111.144 160.808 111.756 160.64 112.54 160.64C112.948 160.64 113.356 160.696 113.764 160.808C114.172 160.912 114.508 161.052 114.772 161.228L114.4 161.912C113.88 161.552 113.26 161.372 112.54 161.372C111.996 161.372 111.584 161.468 111.304 161.66C111.032 161.852 110.896 162.104 110.896 162.416C110.896 162.656 110.972 162.848 111.124 162.992C111.284 163.136 111.48 163.244 111.712 163.316C111.944 163.38 112.264 163.448 112.672 163.52C113.176 163.616 113.58 163.712 113.884 163.808C114.188 163.904 114.448 164.068 114.664 164.3C114.88 164.532 114.988 164.852 114.988 165.26C114.988 165.812 114.756 166.252 114.292 166.58C113.836 166.9 113.2 167.06 112.384 167.06ZM122.059 164.108H116.779C116.827 164.764 117.079 165.296 117.535 165.704C117.991 166.104 118.567 166.304 119.263 166.304C119.655 166.304 120.015 166.236 120.343 166.1C120.671 165.956 120.955 165.748 121.195 165.476L121.675 166.028C121.395 166.364 121.043 166.62 120.619 166.796C120.203 166.972 119.743 167.06 119.239 167.06C118.591 167.06 118.015 166.924 117.511 166.652C117.015 166.372 116.627 165.988 116.347 165.5C116.067 165.012 115.927 164.46 115.927 163.844C115.927 163.228 116.059 162.676 116.323 162.188C116.595 161.7 116.963 161.32 117.427 161.048C117.899 160.776 118.427 160.64 119.011 160.64C119.595 160.64 120.119 160.776 120.583 161.048C121.047 161.32 121.411 161.7 121.675 162.188C121.939 162.668 122.071 163.22 122.071 163.844L122.059 164.108ZM119.011 161.372C118.403 161.372 117.891 161.568 117.475 161.96C117.067 162.344 116.835 162.848 116.779 163.472H121.255C121.199 162.848 120.963 162.344 120.547 161.96C120.139 161.568 119.627 161.372 119.011 161.372ZM124.621 161.924C124.821 161.5 125.117 161.18 125.509 160.964C125.909 160.748 126.401 160.64 126.985 160.64V161.468L126.781 161.456C126.117 161.456 125.597 161.66 125.221 162.068C124.845 162.476 124.657 163.048 124.657 163.784V167H123.805V160.688H124.621V161.924ZM134.546 167.072C133.898 167.072 133.318 166.9 132.806 166.556C132.302 166.212 131.906 165.72 131.618 165.08C131.338 164.432 131.198 163.672 131.198 162.8C131.198 161.928 131.338 161.172 131.618 160.532C131.906 159.884 132.302 159.388 132.806 159.044C133.318 158.7 133.898 158.528 134.546 158.528C135.194 158.528 135.77 158.7 136.274 159.044C136.786 159.388 137.186 159.884 137.474 160.532C137.762 161.172 137.906 161.928 137.906 162.8C137.906 163.672 137.762 164.432 137.474 165.08C137.186 165.72 136.786 166.212 136.274 166.556C135.77 166.9 135.194 167.072 134.546 167.072ZM134.546 166.28C135.034 166.28 135.462 166.144 135.83 165.872C136.206 165.6 136.498 165.204 136.706 164.684C136.914 164.164 137.018 163.536 137.018 162.8C137.018 162.064 136.914 161.436 136.706 160.916C136.498 160.396 136.206 160 135.83 159.728C135.462 159.456 135.034 159.32 134.546 159.32C134.058 159.32 133.626 159.456 133.25 159.728C132.882 160 132.594 160.396 132.386 160.916C132.178 161.436 132.074 162.064 132.074 162.8C132.074 163.536 132.178 164.164 132.386 164.684C132.594 165.204 132.882 165.6 133.25 165.872C133.626 166.144 134.058 166.28 134.546 166.28ZM146.284 164.792H144.604V167H143.74V164.792H139V164.168L143.452 158.6H144.412L140.116 164.024H143.764V162.08H144.604V164.024H146.284V164.792Z" fill="#9B9B9B"/>
<path d="M65.016 203.072C64.184 203.072 63.432 202.888 62.76 202.52C62.096 202.152 61.572 201.644 61.188 200.996C60.812 200.34 60.624 199.608 60.624 198.8C60.624 197.992 60.812 197.264 61.188 196.616C61.572 195.96 62.1 195.448 62.772 195.08C63.444 194.712 64.196 194.528 65.028 194.528C65.652 194.528 66.228 194.632 66.756 194.84C67.284 195.048 67.732 195.352 68.1 195.752L67.536 196.316C66.88 195.652 66.052 195.32 65.052 195.32C64.388 195.32 63.784 195.472 63.24 195.776C62.696 196.08 62.268 196.496 61.956 197.024C61.652 197.552 61.5 198.144 61.5 198.8C61.5 199.456 61.652 200.048 61.956 200.576C62.268 201.104 62.696 201.52 63.24 201.824C63.784 202.128 64.388 202.28 65.052 202.28C66.06 202.28 66.888 201.944 67.536 201.272L68.1 201.836C67.732 202.236 67.28 202.544 66.744 202.76C66.216 202.968 65.64 203.072 65.016 203.072ZM72.1118 203.06C71.5038 203.06 70.9558 202.924 70.4678 202.652C69.9798 202.372 69.5958 201.988 69.3158 201.5C69.0358 201.012 68.8958 200.46 68.8958 199.844C68.8958 199.228 69.0358 198.676 69.3158 198.188C69.5958 197.7 69.9798 197.32 70.4678 197.048C70.9558 196.776 71.5038 196.64 72.1118 196.64C72.7198 196.64 73.2678 196.776 73.7558 197.048C74.2438 197.32 74.6238 197.7 74.8958 198.188C75.1758 198.676 75.3158 199.228 75.3158 199.844C75.3158 200.46 75.1758 201.012 74.8958 201.5C74.6238 201.988 74.2438 202.372 73.7558 202.652C73.2678 202.924 72.7198 203.06 72.1118 203.06ZM72.1118 202.304C72.5598 202.304 72.9598 202.204 73.3118 202.004C73.6718 201.796 73.9518 201.504 74.1518 201.128C74.3518 200.752 74.4518 200.324 74.4518 199.844C74.4518 199.364 74.3518 198.936 74.1518 198.56C73.9518 198.184 73.6718 197.896 73.3118 197.696C72.9598 197.488 72.5598 197.384 72.1118 197.384C71.6638 197.384 71.2598 197.488 70.8998 197.696C70.5478 197.896 70.2678 198.184 70.0598 198.56C69.8598 198.936 69.7598 199.364 69.7598 199.844C69.7598 200.324 69.8598 200.752 70.0598 201.128C70.2678 201.504 70.5478 201.796 70.8998 202.004C71.2598 202.204 71.6638 202.304 72.1118 202.304ZM80.2712 196.64C81.0632 196.64 81.6912 196.872 82.1552 197.336C82.6272 197.792 82.8632 198.46 82.8632 199.34V203H82.0112V199.424C82.0112 198.768 81.8472 198.268 81.5192 197.924C81.1912 197.58 80.7232 197.408 80.1152 197.408C79.4352 197.408 78.8952 197.612 78.4952 198.02C78.1032 198.42 77.9072 198.976 77.9072 199.688V203H77.0552V196.688H77.8712V197.852C78.1032 197.468 78.4232 197.172 78.8312 196.964C79.2472 196.748 79.7272 196.64 80.2712 196.64ZM87.2643 194.756C86.8963 194.756 86.6163 194.856 86.4243 195.056C86.2403 195.256 86.1483 195.552 86.1483 195.944V196.688H88.0923V197.408H86.1723V203H85.3203V197.408H84.1923V196.688H85.3203V195.908C85.3203 195.332 85.4843 194.876 85.8123 194.54C86.1483 194.204 86.6203 194.036 87.2283 194.036C87.4683 194.036 87.7003 194.072 87.9243 194.144C88.1483 194.208 88.3363 194.304 88.4883 194.432L88.2003 195.068C87.9523 194.86 87.6403 194.756 87.2643 194.756ZM90.2043 196.688H91.0563V203H90.2043V196.688ZM90.6363 195.308C90.4603 195.308 90.3123 195.248 90.1923 195.128C90.0723 195.008 90.0123 194.864 90.0123 194.696C90.0123 194.536 90.0723 194.396 90.1923 194.276C90.3123 194.156 90.4603 194.096 90.6363 194.096C90.8123 194.096 90.9603 194.156 91.0803 194.276C91.2003 194.388 91.2603 194.524 91.2603 194.684C91.2603 194.86 91.2003 195.008 91.0803 195.128C90.9603 195.248 90.8123 195.308 90.6363 195.308ZM99.282 196.688V202.232C99.282 203.304 99.018 204.096 98.49 204.608C97.97 205.128 97.182 205.388 96.126 205.388C95.542 205.388 94.986 205.3 94.458 205.124C93.938 204.956 93.514 204.72 93.186 204.416L93.618 203.768C93.922 204.04 94.29 204.252 94.722 204.404C95.162 204.556 95.622 204.632 96.102 204.632C96.902 204.632 97.49 204.444 97.866 204.068C98.242 203.7 98.43 203.124 98.43 202.34V201.536C98.166 201.936 97.818 202.24 97.386 202.448C96.962 202.656 96.49 202.76 95.97 202.76C95.378 202.76 94.838 202.632 94.35 202.376C93.87 202.112 93.49 201.748 93.21 201.284C92.938 200.812 92.802 200.28 92.802 199.688C92.802 199.096 92.938 198.568 93.21 198.104C93.49 197.64 93.87 197.28 94.35 197.024C94.83 196.768 95.37 196.64 95.97 196.64C96.506 196.64 96.99 196.748 97.422 196.964C97.854 197.18 98.202 197.492 98.466 197.9V196.688H99.282ZM96.054 202.004C96.51 202.004 96.922 201.908 97.29 201.716C97.658 201.516 97.942 201.24 98.142 200.888C98.35 200.536 98.454 200.136 98.454 199.688C98.454 199.24 98.35 198.844 98.142 198.5C97.942 198.148 97.658 197.876 97.29 197.684C96.93 197.484 96.518 197.384 96.054 197.384C95.598 197.384 95.186 197.48 94.818 197.672C94.458 197.864 94.174 198.136 93.966 198.488C93.766 198.84 93.666 199.24 93.666 199.688C93.666 200.136 93.766 200.536 93.966 200.888C94.174 201.24 94.458 201.516 94.818 201.716C95.186 201.908 95.598 202.004 96.054 202.004ZM107.353 196.688V203H106.537V201.848C106.313 202.232 106.005 202.532 105.613 202.748C105.221 202.956 104.773 203.06 104.269 203.06C103.445 203.06 102.793 202.832 102.313 202.376C101.841 201.912 101.605 201.236 101.605 200.348V196.688H102.457V200.264C102.457 200.928 102.621 201.432 102.949 201.776C103.277 202.12 103.745 202.292 104.353 202.292C105.017 202.292 105.541 202.092 105.925 201.692C106.309 201.284 106.501 200.72 106.501 200V196.688H107.353ZM110.555 197.924C110.755 197.5 111.051 197.18 111.443 196.964C111.843 196.748 112.335 196.64 112.919 196.64V197.468L112.715 197.456C112.051 197.456 111.531 197.66 111.155 198.068C110.779 198.476 110.591 199.048 110.591 199.784V203H109.739V196.688H110.555V197.924ZM116.658 196.64C117.482 196.64 118.114 196.848 118.554 197.264C118.994 197.672 119.214 198.28 119.214 199.088V203H118.398V202.016C118.206 202.344 117.922 202.6 117.546 202.784C117.178 202.968 116.738 203.06 116.226 203.06C115.522 203.06 114.962 202.892 114.546 202.556C114.13 202.22 113.922 201.776 113.922 201.224C113.922 200.688 114.114 200.256 114.498 199.928C114.89 199.6 115.51 199.436 116.358 199.436H118.362V199.052C118.362 198.508 118.21 198.096 117.906 197.816C117.602 197.528 117.158 197.384 116.574 197.384C116.174 197.384 115.79 197.452 115.422 197.588C115.054 197.716 114.738 197.896 114.474 198.128L114.09 197.492C114.41 197.22 114.794 197.012 115.242 196.868C115.69 196.716 116.162 196.64 116.658 196.64ZM116.358 202.388C116.838 202.388 117.25 202.28 117.594 202.064C117.938 201.84 118.194 201.52 118.362 201.104V200.072H116.382C115.302 200.072 114.762 200.448 114.762 201.2C114.762 201.568 114.902 201.86 115.182 202.076C115.462 202.284 115.854 202.388 116.358 202.388ZM124.167 203.06C123.543 203.06 122.983 202.924 122.487 202.652C121.999 202.38 121.615 202 121.335 201.512C121.055 201.016 120.915 200.46 120.915 199.844C120.915 199.228 121.055 198.676 121.335 198.188C121.615 197.7 121.999 197.32 122.487 197.048C122.983 196.776 123.543 196.64 124.167 196.64C124.711 196.64 125.195 196.748 125.619 196.964C126.051 197.172 126.391 197.48 126.639 197.888L126.003 198.32C125.795 198.008 125.531 197.776 125.211 197.624C124.891 197.464 124.543 197.384 124.167 197.384C123.711 197.384 123.299 197.488 122.931 197.696C122.571 197.896 122.287 198.184 122.079 198.56C121.879 198.936 121.779 199.364 121.779 199.844C121.779 200.332 121.879 200.764 122.079 201.14C122.287 201.508 122.571 201.796 122.931 202.004C123.299 202.204 123.711 202.304 124.167 202.304C124.543 202.304 124.891 202.228 125.211 202.076C125.531 201.924 125.795 201.692 126.003 201.38L126.639 201.812C126.391 202.22 126.051 202.532 125.619 202.748C125.187 202.956 124.703 203.06 124.167 203.06ZM128.313 196.688H129.165V203H128.313V196.688ZM128.745 195.308C128.569 195.308 128.421 195.248 128.301 195.128C128.181 195.008 128.121 194.864 128.121 194.696C128.121 194.536 128.181 194.396 128.301 194.276C128.421 194.156 128.569 194.096 128.745 194.096C128.921 194.096 129.069 194.156 129.189 194.276C129.309 194.388 129.369 194.524 129.369 194.684C129.369 194.86 129.309 195.008 129.189 195.128C129.069 195.248 128.921 195.308 128.745 195.308ZM134.116 203.06C133.508 203.06 132.96 202.924 132.472 202.652C131.984 202.372 131.6 201.988 131.32 201.5C131.04 201.012 130.9 200.46 130.9 199.844C130.9 199.228 131.04 198.676 131.32 198.188C131.6 197.7 131.984 197.32 132.472 197.048C132.96 196.776 133.508 196.64 134.116 196.64C134.724 196.64 135.272 196.776 135.76 197.048C136.248 197.32 136.628 197.7 136.9 198.188C137.18 198.676 137.32 199.228 137.32 199.844C137.32 200.46 137.18 201.012 136.9 201.5C136.628 201.988 136.248 202.372 135.76 202.652C135.272 202.924 134.724 203.06 134.116 203.06ZM134.116 202.304C134.564 202.304 134.964 202.204 135.316 202.004C135.676 201.796 135.956 201.504 136.156 201.128C136.356 200.752 136.456 200.324 136.456 199.844C136.456 199.364 136.356 198.936 136.156 198.56C135.956 198.184 135.676 197.896 135.316 197.696C134.964 197.488 134.564 197.384 134.116 197.384C133.668 197.384 133.264 197.488 132.904 197.696C132.552 197.896 132.272 198.184 132.064 198.56C131.864 198.936 131.764 199.364 131.764 199.844C131.764 200.324 131.864 200.752 132.064 201.128C132.272 201.504 132.552 201.796 132.904 202.004C133.264 202.204 133.668 202.304 134.116 202.304ZM134.968 194.216H136.108L134.164 195.704H133.324L134.968 194.216ZM142.275 196.64C143.067 196.64 143.695 196.872 144.159 197.336C144.631 197.792 144.867 198.46 144.867 199.34V203H144.015V199.424C144.015 198.768 143.851 198.268 143.523 197.924C143.195 197.58 142.727 197.408 142.119 197.408C141.439 197.408 140.899 197.612 140.499 198.02C140.107 198.42 139.911 198.976 139.911 199.688V203H139.059V196.688H139.875V197.852C140.107 197.468 140.427 197.172 140.835 196.964C141.251 196.748 141.731 196.64 142.275 196.64Z" fill="black"/>
<path d="M60 213.53H171" stroke="#CCCCCC" stroke-linecap="square"/>
<path d="M66.636 230.756H61.956L60.948 233H60.024L63.864 224.6H64.74L68.58 233H67.644L66.636 230.756ZM66.312 230.036L64.296 225.524L62.28 230.036H66.312ZM74.7772 226.688L71.6212 233.756C71.3652 234.348 71.0692 234.768 70.7332 235.016C70.3972 235.264 69.9932 235.388 69.5212 235.388C69.2172 235.388 68.9332 235.34 68.6692 235.244C68.4052 235.148 68.1772 235.004 67.9852 234.812L68.3812 234.176C68.7012 234.496 69.0852 234.656 69.5332 234.656C69.8212 234.656 70.0652 234.576 70.2652 234.416C70.4732 234.256 70.6652 233.984 70.8412 233.6L71.1172 232.988L68.2972 226.688H69.1852L71.5612 232.052L73.9372 226.688H74.7772ZM81.6651 226.688V233H80.8491V231.848C80.6251 232.232 80.3171 232.532 79.9251 232.748C79.5331 232.956 79.0851 233.06 78.5811 233.06C77.7571 233.06 77.1051 232.832 76.6251 232.376C76.1531 231.912 75.9171 231.236 75.9171 230.348V226.688H76.7691V230.264C76.7691 230.928 76.9331 231.432 77.2611 231.776C77.5891 232.12 78.0571 232.292 78.6651 232.292C79.3291 232.292 79.8531 232.092 80.2371 231.692C80.6211 231.284 80.8131 230.72 80.8131 230V226.688H81.6651ZM89.8113 224.096V233H88.9953V231.752C88.7393 232.176 88.3993 232.5 87.9753 232.724C87.5593 232.948 87.0873 233.06 86.5593 233.06C85.9673 233.06 85.4313 232.924 84.9513 232.652C84.4713 232.38 84.0953 232 83.8233 231.512C83.5513 231.024 83.4153 230.468 83.4153 229.844C83.4153 229.22 83.5513 228.664 83.8233 228.176C84.0953 227.688 84.4713 227.312 84.9513 227.048C85.4313 226.776 85.9673 226.64 86.5593 226.64C87.0713 226.64 87.5313 226.748 87.9393 226.964C88.3553 227.172 88.6953 227.48 88.9593 227.888V224.096H89.8113ZM86.6313 232.304C87.0713 232.304 87.4673 232.204 87.8193 232.004C88.1793 231.796 88.4593 231.504 88.6593 231.128C88.8673 230.752 88.9713 230.324 88.9713 229.844C88.9713 229.364 88.8673 228.936 88.6593 228.56C88.4593 228.184 88.1793 227.896 87.8193 227.696C87.4673 227.488 87.0713 227.384 86.6313 227.384C86.1833 227.384 85.7793 227.488 85.4193 227.696C85.0673 227.896 84.7873 228.184 84.5793 228.56C84.3793 228.936 84.2793 229.364 84.2793 229.844C84.2793 230.324 84.3793 230.752 84.5793 231.128C84.7873 231.504 85.0673 231.796 85.4193 232.004C85.7793 232.204 86.1833 232.304 86.6313 232.304ZM94.3921 226.64C95.2161 226.64 95.8481 226.848 96.2881 227.264C96.7281 227.672 96.9481 228.28 96.9481 229.088V233H96.1321V232.016C95.9401 232.344 95.6561 232.6 95.2801 232.784C94.9121 232.968 94.4721 233.06 93.9601 233.06C93.2561 233.06 92.6961 232.892 92.2801 232.556C91.8641 232.22 91.6561 231.776 91.6561 231.224C91.6561 230.688 91.8481 230.256 92.2321 229.928C92.6241 229.6 93.2441 229.436 94.0921 229.436H96.0961V229.052C96.0961 228.508 95.9441 228.096 95.6401 227.816C95.3361 227.528 94.8921 227.384 94.3081 227.384C93.9081 227.384 93.5241 227.452 93.1561 227.588C92.7881 227.716 92.4721 227.896 92.2081 228.128L91.8241 227.492C92.1441 227.22 92.5281 227.012 92.9761 226.868C93.4241 226.716 93.8961 226.64 94.3921 226.64ZM94.0921 232.388C94.5721 232.388 94.9841 232.28 95.3281 232.064C95.6721 231.84 95.9281 231.52 96.0961 231.104V230.072H94.1161C93.0361 230.072 92.4961 230.448 92.4961 231.2C92.4961 231.568 92.6361 231.86 92.9161 232.076C93.1961 232.284 93.5881 232.388 94.0921 232.388Z" fill="black"/>
<path d="M60 243.53H171" stroke="#CCCCCC" stroke-linecap="square"/>
<path d="M60.996 254.6H62.94V261.416H67.152V263H60.996V254.6ZM71.1313 263.096C70.4513 263.096 69.8393 262.956 69.2953 262.676C68.7593 262.388 68.3393 261.992 68.0353 261.488C67.7313 260.984 67.5793 260.412 67.5793 259.772C67.5793 259.132 67.7313 258.56 68.0353 258.056C68.3393 257.552 68.7593 257.16 69.2953 256.88C69.8393 256.592 70.4513 256.448 71.1313 256.448C71.8113 256.448 72.4193 256.592 72.9553 256.88C73.4913 257.16 73.9113 257.552 74.2153 258.056C74.5193 258.56 74.6713 259.132 74.6713 259.772C74.6713 260.412 74.5193 260.984 74.2153 261.488C73.9113 261.992 73.4913 262.388 72.9553 262.676C72.4193 262.956 71.8113 263.096 71.1313 263.096ZM71.1313 261.56C71.6113 261.56 72.0033 261.4 72.3073 261.08C72.6193 260.752 72.7753 260.316 72.7753 259.772C72.7753 259.228 72.6193 258.796 72.3073 258.476C72.0033 258.148 71.6113 257.984 71.1313 257.984C70.6513 257.984 70.2553 258.148 69.9433 258.476C69.6313 258.796 69.4753 259.228 69.4753 259.772C69.4753 260.316 69.6313 260.752 69.9433 261.08C70.2553 261.4 70.6513 261.56 71.1313 261.56ZM82.5826 256.544V261.92C82.5826 263.104 82.2746 263.984 81.6586 264.56C81.0426 265.136 80.1426 265.424 78.9586 265.424C78.3346 265.424 77.7426 265.348 77.1826 265.196C76.6226 265.044 76.1586 264.824 75.7906 264.536L76.5346 263.192C76.8066 263.416 77.1506 263.592 77.5666 263.72C77.9826 263.856 78.3986 263.924 78.8146 263.924C79.4626 263.924 79.9386 263.776 80.2426 263.48C80.5546 263.192 80.7106 262.752 80.7106 262.16V261.884C80.2226 262.42 79.5426 262.688 78.6706 262.688C78.0786 262.688 77.5346 262.56 77.0386 262.304C76.5506 262.04 76.1626 261.672 75.8746 261.2C75.5866 260.728 75.4426 260.184 75.4426 259.568C75.4426 258.952 75.5866 258.408 75.8746 257.936C76.1626 257.464 76.5506 257.1 77.0386 256.844C77.5346 256.58 78.0786 256.448 78.6706 256.448C79.6066 256.448 80.3186 256.756 80.8066 257.372V256.544H82.5826ZM79.0426 261.152C79.5386 261.152 79.9426 261.008 80.2546 260.72C80.5746 260.424 80.7346 260.04 80.7346 259.568C80.7346 259.096 80.5746 258.716 80.2546 258.428C79.9426 258.132 79.5386 257.984 79.0426 257.984C78.5466 257.984 78.1386 258.132 77.8186 258.428C77.4986 258.716 77.3386 259.096 77.3386 259.568C77.3386 260.04 77.4986 260.424 77.8186 260.72C78.1386 261.008 78.5466 261.152 79.0426 261.152ZM91.9234 263.144C91.0514 263.144 90.2634 262.956 89.5594 262.58C88.8634 262.204 88.3154 261.688 87.9154 261.032C87.5234 260.368 87.3274 259.624 87.3274 258.8C87.3274 257.976 87.5234 257.236 87.9154 256.58C88.3154 255.916 88.8634 255.396 89.5594 255.02C90.2634 254.644 91.0514 254.456 91.9234 254.456C92.7954 254.456 93.5794 254.644 94.2754 255.02C94.9714 255.396 95.5194 255.916 95.9194 256.58C96.3194 257.236 96.5194 257.976 96.5194 258.8C96.5194 259.624 96.3194 260.368 95.9194 261.032C95.5194 261.688 94.9714 262.204 94.2754 262.58C93.5794 262.956 92.7954 263.144 91.9234 263.144ZM91.9234 261.488C92.4194 261.488 92.8674 261.376 93.2674 261.152C93.6674 260.92 93.9794 260.6 94.2034 260.192C94.4354 259.784 94.5514 259.32 94.5514 258.8C94.5514 258.28 94.4354 257.816 94.2034 257.408C93.9794 257 93.6674 256.684 93.2674 256.46C92.8674 256.228 92.4194 256.112 91.9234 256.112C91.4274 256.112 90.9794 256.228 90.5794 256.46C90.1794 256.684 89.8634 257 89.6314 257.408C89.4074 257.816 89.2954 258.28 89.2954 258.8C89.2954 259.32 89.4074 259.784 89.6314 260.192C89.8634 260.6 90.1794 260.92 90.5794 261.152C90.9794 261.376 91.4274 261.488 91.9234 261.488ZM104.352 256.544V263H102.576V262.232C102.328 262.512 102.032 262.728 101.688 262.88C101.344 263.024 100.972 263.096 100.572 263.096C99.7244 263.096 99.0524 262.852 98.5564 262.364C98.0604 261.876 97.8124 261.152 97.8124 260.192V256.544H99.6844V259.916C99.6844 260.956 100.12 261.476 100.992 261.476C101.44 261.476 101.8 261.332 102.072 261.044C102.344 260.748 102.48 260.312 102.48 259.736V256.544H104.352ZM110.251 262.688C110.067 262.824 109.839 262.928 109.567 263C109.303 263.064 109.023 263.096 108.727 263.096C107.959 263.096 107.363 262.9 106.939 262.508C106.523 262.116 106.315 261.54 106.315 260.78V258.128H105.319V256.688H106.315V255.116H108.187V256.688H109.795V258.128H108.187V260.756C108.187 261.028 108.255 261.24 108.391 261.392C108.535 261.536 108.735 261.608 108.991 261.608C109.287 261.608 109.539 261.528 109.747 261.368L110.251 262.688Z" fill="black"/>
</g>
<defs>
<filter id="filter0_d" x="0" y="0" width="230" height="327" filterUnits="userSpaceOnUse" color-interpolation-filters="sRGB">
<feFlood flood-opacity="0" result="BackgroundImageFix"/>
<feColorMatrix in="SourceAlpha" type="matrix" values="0 0 0 0 0 0 0 0 0 0 0 0 0 0 0 0 0 0 127 0"/>
<feOffset/>
<feGaussianBlur stdDeviation="25"/>
<feColorMatrix type="matrix" values="0 0 0 0 0 0 0 0 0 0 0 0 0 0 0 0 0 0 0.2 0"/>
<feBlend mode="normal" in2="BackgroundImageFix" result="effect1_dropShadow"/>
<feBlend mode="normal" in="SourceGraphic" in2="effect1_dropShadow" result="shape"/>
</filter>
<filter id="filter1_d" x="50" y="60" width="131" height="57" filterUnits="userSpaceOnUse" color-interpolation-filters="sRGB">
<feFlood flood-opacity="0" result="BackgroundImageFix"/>
<feColorMatrix in="SourceAlpha" type="matrix" values="0 0 0 0 0 0 0 0 0 0 0 0 0 0 0 0 0 0 127 0"/>
<feOffset/>
<feGaussianBlur stdDeviation="5"/>
<feColorMatrix type="matrix" values="0 0 0 0 0 0 0 0 0 0 0 0 0 0 0 0 0 0 0.1 0"/>
<feBlend mode="normal" in2="BackgroundImageFix" result="effect1_dropShadow"/>
<feBlend mode="normal" in="SourceGraphic" in2="effect1_dropShadow" result="shape"/>
</filter>
</defs>
</svg>
